<?xml version="1.0" encoding="UTF-8" standalone="no"?>
<!DOCTYPE svg PUBLIC "-//W3C//DTD SVG 1.1//EN" "http://www.w3.org/Graphics/SVG/1.1/DTD/svg11.dtd">
<svg width="100%" height="100%" viewBox="0 0 827 500" version="1.1" xmlns="http://www.w3.org/2000/svg" xmlns:xlink="http://www.w3.org/1999/xlink" xml:space="preserve" xmlns:serif="http://www.serif.com/" style="fill-rule:evenodd;clip-rule:evenodd;stroke-linejoin:round;stroke-miterlimit:2;">
    <g id="_1" serif:id="1">
        <g transform="matrix(1,0,0,1.00725,0,-3.61739)">
            <rect x="0" y="3.591" width="826.667" height="495.609"/>
        </g>
        <g id="path2" transform="matrix(0.133333,0,0,-0.133333,0,499.2)">
            <g id="group-R5">
                <path id="path21" serif:id="path2" d="M5906,3066C5810,2898 5693,2743 5560,2603C5303,2332 4989,2122 4658,1953L4657,1951C4636,1922 4623,1891 4609,1860C4594,1829 4581,1797 4564,1767C4533,1706 4499,1646 4461,1588C4442,1559 4425,1530 4404,1503C4385,1475 4365,1447 4344,1420C4324,1393 4303,1365 4281,1340C4259,1314 4237,1288 4214,1263C4122,1163 4020,1073 3908,994C3852,954 3794,920 3733,888C3702,874 3672,858 3640,844C3608,831 3577,817 3548,795C3521,749 3497,702 3477,654C3471,639 3465,625 3460,610C3450,650 3443,691 3442,732C3440,812 3455,892 3480,969C3505,1046 3538,1121 3574,1195C3592,1232 3610,1268 3629,1305C3647,1342 3664,1380 3681,1417L3785,1641L3991,2084L5497,2642L5502,2644L5504,2649L5736,3155C5758,3151 5781,3163 5791,3184C5803,3210 5792,3241 5765,3253C5739,3265 5708,3254 5696,3227C5686,3205 5692,3181 5710,3166L5480,2665L3974,2107L3969,2105L3967,2100L3760,1652L3656,1428C3638,1391 3622,1353 3603,1316C3584,1280 3565,1243 3546,1206C3509,1132 3474,1057 3448,977C3422,898 3404,814 3406,729C3407,667 3419,605 3439,546C3434,529 3429,512 3425,495C3415,504 3405,512 3395,521C3299,599 3199,672 3094,737C3081,745 3068,754 3055,763C3066,805 3074,847 3078,890C3080,910 3081,919 3096,930C3100,933 3104,937 3108,941C3116,949 3122,959 3128,969C3133,979 3137,990 3141,1000C3144,1011 3146,1022 3148,1033C3148,1035 3147,1037 3145,1037C3143,1037 3141,1036 3141,1034C3139,1023 3136,1013 3133,1003C3129,993 3125,983 3120,974C3115,965 3109,956 3101,949C3099,947 3096,944 3093,942C3082,935 3082,939 3083,949C3083,949 3084,1027 3080,1068C3080,1070 3078,1071 3076,1071C3074,1071 3073,1069 3073,1067C3081,967 3071,866 3044,771C3011,794 2979,818 2950,845C2905,885 2865,931 2831,980C2790,1039 2759,1106 2741,1176C2752,1186 2763,1197 2772,1208L2793,1233L2812,1259C2825,1276 2836,1295 2847,1313C2869,1350 2886,1389 2904,1427L2989,1611C3011,1607 3034,1619 3044,1640C3056,1666 3045,1697 3019,1709C2993,1721 2962,1710 2950,1684C2940,1662 2946,1638 2964,1623L2879,1439C2844,1362 2806,1289 2751,1228C2746,1222 2740,1216 2734,1210C2727,1245 2723,1281 2724,1317C2725,1436 2767,1555 2843,1648C2881,1695 2926,1735 2976,1768C3026,1802 3081,1826 3139,1846L3485,1974L3509,1910L3601,1944L3659,2070L3579,2288L3395,2221L3423,2145L3419,2157L3068,2027C2652,1896 2382,1961 2233,2034C2275,2074 2324,2105 2378,2125C2435,2147 2498,2156 2560,2162C2685,2172 2813,2169 2941,2184C3068,2197 3195,2225 3315,2270L3672,2402L3677,2404L3679,2409L3774,2617C3796,2613 3819,2625 3829,2646C3841,2672 3830,2703 3804,2715C3778,2727 3747,2716 3735,2690C3725,2668 3731,2644 3749,2629L3656,2426L3304,2296C3186,2253 3062,2226 2937,2213C2812,2199 2685,2203 2557,2193C2493,2187 2428,2178 2366,2155C2305,2132 2247,2096 2201,2050C2188,2057 2176,2064 2166,2071C2091,2119 2032,2182 1993,2251C1997,2253 2002,2254 2006,2256C2032,2263 2058,2271 2085,2280C2190,2318 2278,2405 2314,2512C2322,2534 2327,2558 2330,2581L2330,2579C2331,2584 2331,2589 2332,2593C2338,2639 2349,2642 2382,2591C2401,2561 2422,2533 2445,2509C2526,2421 2661,2373 2811,2373C2849,2373 2889,2376 2929,2383C3114,2413 3259,2507 3317,2635L3390,2794C3412,2790 3435,2802 3445,2823C3457,2849 3446,2880 3420,2892C3394,2904 3363,2893 3351,2867C3341,2845 3347,2821 3365,2806L3292,2647C3238,2528 3100,2440 2925,2411C2740,2381 2560,2427 2466,2529C2403,2597 2354,2693 2305,2798C2284,2842 2278,2866 2311,2847C2325,2840 2339,2834 2354,2829C2418,2809 2486,2813 2548,2830C2558,2791 2571,2752 2587,2715C2625,2626 2682,2545 2755,2481C2756,2480 2759,2480 2760,2481C2761,2482 2761,2485 2760,2486C2697,2543 2647,2614 2611,2691C2609,2698 2617,2695 2628,2688C2629,2687 2629,2687 2630,2687C2641,2680 2653,2675 2666,2671C2682,2666 2698,2665 2714,2667C2730,2668 2745,2676 2759,2684C2761,2685 2761,2687 2760,2689C2759,2691 2757,2691 2755,2690C2741,2683 2727,2676 2712,2675C2697,2674 2682,2675 2667,2680C2646,2687 2626,2700 2609,2715C2600,2724 2592,2735 2586,2749C2576,2777 2567,2806 2560,2835C2564,2836 2569,2838 2573,2839C2643,2863 2706,2904 2758,2957C2784,2983 2806,3013 2825,3044C2844,3074 2865,3103 2888,3131C2933,3184 2983,3231 3038,3274L3103,3274C3256,3274 3409,3265 3560,3246C3711,3227 3862,3196 4007,3150C4152,3103 4292,3039 4415,2950C4476,2905 4534,2855 4583,2798C4596,2784 4607,2768 4618,2753C4630,2738 4640,2722 4651,2707C4662,2692 4672,2676 4683,2660C4695,2644 4704,2630 4719,2615L4721,2616L4728,2619C4841,2665 4951,2717 5054,2784C5159,2852 5254,2934 5334,3029C5415,3123 5481,3228 5538,3337C5595,3446 5642,3559 5685,3674C5632,3560 5580,3449 5518,3344C5457,3239 5386,3139 5303,3051C5220,2963 5125,2888 5021,2828C4921,2769 4812,2724 4702,2685C4695,2699 4687,2713 4678,2726C4657,2759 4632,2790 4606,2820C4555,2880 4498,2934 4435,2982C4310,3078 4168,3148 4020,3201C3724,3306 3410,3344 3098,3345C2787,3343 2472,3305 2176,3201C2029,3148 1886,3078 1761,2982C1698,2934 1642,2879 1590,2820C1564,2790 1540,2759 1518,2726C1509,2713 1501,2699 1494,2685C1384,2724 1275,2769 1175,2828C1071,2888 976,2963 893,3051C813,3139 743,3239 682,3344C621,3449 568,3560 519,3672C562,3558 610,3444 666,3335C712,3247 764,3162 824,3082C823,3002 832,2922 853,2844C871,2775 899,2708 935,2647C943,2634 949,2620 944,2606C937,2585 934,2564 933,2542C933,2515 937,2488 945,2463C946,2462 947,2461 949,2461C951,2461 951,2463 951,2465C944,2490 941,2516 942,2542C943,2558 946,2575 950,2590C954,2602 960,2604 967,2595C996,2554 1028,2515 1064,2480C1065,2479 1068,2479 1069,2480C1070,2481 1070,2484 1069,2485C970,2585 900,2712 867,2848C850,2916 843,2986 843,3056C851,3046 859,3036 868,3026C948,2932 1044,2849 1148,2781C1250,2714 1361,2662 1474,2616L1479,2614C1480,2614 1480,2613 1481,2613L1483,2612C1497,2627 1506,2642 1518,2657C1529,2673 1539,2689 1550,2704C1561,2719 1571,2736 1583,2750C1594,2765 1605,2781 1618,2795C1667,2853 1725,2903 1786,2947C1856,2998 1931,3040 2010,3076C2008,2983 1984,2882 1958,2779C1941,2709 1923,2638 1913,2568C1913,2567 1912,2567 1912,2566C1910,2544 1898,2525 1879,2512C1860,2499 1836,2491 1813,2485C1765,2474 1714,2468 1663,2463C1561,2453 1458,2445 1356,2422C1308,2411 1260,2397 1213,2378C1124,2391 1034,2395 944,2387C921,2385 899,2382 877,2378C793,2447 713,2521 637,2601C504,2741 387,2896 291,3064C198,3233 124,3414 72,3601C118,3413 187,3229 278,3057C370,2885 483,2724 613,2579C874,2287 1198,2058 1542,1872L1560,1862C1572,1825 1587,1788 1601,1752C1627,1687 1656,1623 1689,1561C1705,1530 1722,1499 1741,1469C1760,1439 1778,1409 1799,1380C1820,1351 1840,1323 1863,1296C1885,1268 1907,1241 1932,1215C2028,1111 2137,1018 2259,946C2320,909 2383,878 2448,850C2481,838 2513,824 2547,812C2550,811 2553,810 2556,810L2571,790C2649,691 2709,576 2748,453C2787,330 2805,200 2811,70C2815,164 2813,259 2801,353C2818,369 2834,386 2851,402C2875,427 2896,455 2918,482C2937,511 2958,539 2975,569L3011,638L3021,662C3030,684 3038,706 3045,729C3055,722 3066,715 3076,708C3179,643 3278,571 3372,493C3387,481 3402,468 3416,455C3389,328 3383,198 3389,70C3395,200 3413,330 3452,453C3490,576 3550,690 3629,790L3644,810C3647,811 3650,812 3653,812C3686,823 3719,837 3752,850C3817,878 3880,909 3941,946C4063,1018 4172,1111 4268,1215C4293,1240 4315,1268 4337,1296C4360,1323 4380,1352 4401,1380C4422,1408 4440,1439 4459,1469C4478,1499 4495,1529 4511,1561C4544,1623 4573,1687 4599,1752C4613,1789 4628,1825 4640,1862L4658,1872C5002,2057 5326,2286 5587,2579C5717,2725 5831,2885 5922,3057C6013,3229 6082,3412 6128,3601C6076,3414 6002,3233 5906,3066ZM2149,2049C2158,2043 2169,2037 2180,2030C2133,1979 2096,1921 2064,1861C2041,1897 2015,1931 1988,1964C1936,2024 1878,2078 1815,2126C1846,2167 1886,2201 1931,2225C1943,2231 1954,2237 1966,2242C2006,2167 2069,2101 2149,2049ZM3015,3273C2964,3233 2917,3189 2875,3140C2851,3112 2830,3083 2810,3052C2791,3022 2769,2994 2744,2969C2693,2919 2631,2881 2564,2859C2560,2858 2556,2857 2553,2856C2543,2903 2537,2951 2534,3000C2530,3078 2535,3156 2548,3233C2580,3238 2612,3243 2643,3247C2766,3261 2890,3270 3015,3273ZM2196,3149C2304,3184 2415,3210 2528,3229C2517,3153 2513,3075 2518,2998C2521,2949 2528,2900 2539,2852C2479,2836 2415,2834 2357,2854C2291,2875 2238,2926 2209,2989C2185,3036 2159,3083 2130,3128C2152,3134 2174,3142 2196,3149ZM1987,2774C2014,2881 2040,2989 2040,3090C2061,3099 2083,3108 2104,3116C2165,3021 2212,2922 2256,2828C2257,2827 2257,2826 2258,2824C2264,2812 2269,2801 2274,2789C2309,2704 2319,2608 2290,2520C2258,2419 2177,2335 2076,2297C2051,2289 2025,2280 1998,2272C1993,2270 1987,2268 1982,2266C1958,2311 1943,2359 1937,2408C1924,2521 1956,2650 1987,2774ZM1364,2397C1463,2419 1565,2428 1667,2438C1718,2443 1770,2448 1821,2460C1837,2464 1854,2470 1870,2477C1892,2486 1905,2482 1906,2457C1906,2439 1907,2422 1909,2405C1915,2353 1931,2303 1956,2256C1944,2251 1933,2244 1922,2239C1876,2213 1835,2177 1804,2134C1716,2200 1619,2255 1517,2297C1438,2330 1354,2355 1270,2371C1301,2381 1332,2390 1364,2397ZM950,2357C1021,2365 1093,2364 1165,2358C1133,2342 1101,2324 1072,2303C1057,2292 1042,2280 1028,2267C990,2295 952,2324 915,2353C926,2354 938,2355 950,2357ZM1795,1504C1775,1532 1757,1561 1738,1589C1701,1646 1667,1706 1635,1768C1619,1798 1605,1830 1590,1861C1575,1892 1563,1923 1542,1952L1541,1954C1371,2041 1205,2139 1049,2250C1061,2261 1074,2271 1087,2280C1127,2309 1171,2332 1216,2351C1315,2337 1413,2311 1507,2274C1608,2234 1704,2181 1792,2118C1732,2029 1710,1919 1711,1814C1711,1812 1713,1811 1714,1811C1716,1811 1717,1813 1717,1814C1717,1868 1724,1922 1738,1974C1745,1990 1755,1974 1761,1954C1762,1952 1762,1950 1763,1949C1767,1936 1772,1923 1777,1911C1793,1875 1817,1840 1854,1822C1856,1821 1858,1822 1859,1823C1860,1825 1859,1827 1858,1828C1824,1846 1801,1880 1786,1915C1775,1940 1768,1966 1762,1993C1758,2012 1762,2037 1771,2059C1780,2077 1789,2095 1801,2111C1863,2065 1922,2013 1973,1954C2002,1921 2030,1885 2054,1848C2033,1807 2014,1764 1996,1723L1957,1637C1943,1609 1927,1582 1912,1555C1898,1527 1880,1501 1862,1475L1839,1441C1825,1461 1810,1482 1795,1504ZM1986,1264C1963,1289 1941,1315 1919,1341C1900,1363 1882,1386 1865,1409C1866,1411 1867,1412 1868,1414L1895,1454C1913,1481 1931,1507 1946,1536C1961,1564 1978,1592 1992,1621L2032,1709C2047,1744 2062,1779 2079,1814C2098,1782 2114,1749 2128,1715C2164,1627 2181,1531 2175,1435C2175,1433 2176,1431 2178,1431C2180,1431 2182,1432 2182,1434C2188,1505 2180,1576 2162,1645C2162,1647 2161,1649 2161,1651C2160,1654 2159,1658 2158,1661C2154,1676 2156,1680 2170,1669C2181,1661 2193,1653 2205,1647C2222,1640 2239,1635 2257,1632C2266,1630 2275,1630 2284,1629L2311,1628C2313,1628 2314,1629 2315,1631C2315,1633 2314,1635 2312,1635L2286,1636C2277,1637 2269,1638 2260,1640C2245,1643 2230,1647 2216,1653C2195,1664 2192,1674 2202,1688C2205,1692 2209,1696 2214,1699C2220,1703 2227,1706 2235,1707C2243,1709 2250,1709 2258,1708C2260,1708 2262,1709 2262,1711C2262,1713 2261,1715 2259,1715C2251,1716 2242,1716 2234,1714C2226,1713 2217,1709 2210,1705C2204,1701 2199,1696 2194,1691C2193,1689 2192,1687 2191,1685C2185,1673 2174,1676 2165,1686C2164,1687 2163,1688 2162,1689C2152,1700 2134,1731 2129,1744C2127,1749 2103,1801 2088,1827C2122,1895 2162,1960 2214,2015C2304,1969 2439,1926 2623,1926C2750,1926 2902,1947 3078,2002L3430,2132L3454,2066L3449,2080L2956,1897C2943,1915 2918,1924 2896,1915C2869,1905 2855,1875 2865,1848C2875,1821 2905,1807 2932,1817C2954,1825 2968,1847 2966,1870L3459,2053L3483,1989L3478,2002L3132,1874C3074,1853 3015,1828 2963,1793C2910,1759 2863,1716 2823,1667C2742,1570 2697,1444 2695,1318C2694,1273 2699,1229 2709,1185C2663,1146 2608,1117 2550,1099C2471,1077 2388,1072 2305,1075C2271,1076 2238,1078 2204,1081C2210,1102 2218,1122 2224,1143C2236,1175 2251,1206 2264,1237C2281,1266 2296,1297 2315,1325L2360,1388L2377,1407C2466,1511 2581,1591 2709,1641C2711,1642 2712,1644 2711,1645C2710,1647 2708,1648 2707,1647C2645,1624 2585,1594 2529,1557C2517,1550 2514,1552 2510,1563C2509,1566 2508,1570 2507,1573C2505,1583 2504,1594 2504,1604C2504,1625 2509,1646 2516,1666C2517,1668 2516,1670 2514,1670C2512,1671 2510,1670 2509,1668C2501,1648 2495,1626 2494,1603C2493,1592 2494,1580 2496,1569C2497,1566 2497,1563 2498,1561C2502,1546 2506,1540 2492,1529C2446,1495 2404,1458 2366,1415L2348,1396L2332,1375L2301,1333C2281,1304 2265,1274 2247,1244C2233,1212 2217,1181 2204,1149C2197,1126 2188,1104 2181,1082L2179,1082C2107,1140 2044,1200 1986,1264ZM3006,670L2996,646L2984,624L2959,579C2941,550 2921,523 2902,495C2879,470 2858,443 2835,418C2822,406 2810,394 2797,383C2793,410 2788,437 2782,464C2768,529 2749,593 2723,655C2703,704 2679,751 2652,796L2652,797C2622,819 2591,833 2560,846C2528,859 2498,875 2467,890C2406,922 2347,956 2292,996C2268,1013 2245,1030 2222,1048C2248,1046 2274,1045 2300,1044C2385,1041 2472,1047 2555,1072C2596,1086 2637,1103 2673,1127C2687,1136 2700,1146 2713,1156C2732,1088 2763,1023 2802,965C2837,913 2879,865 2926,823C2959,793 2995,765 3033,740C3025,716 3016,693 3006,670ZM4175,1827L4036,1525C4053,1510 4060,1485 4050,1464C4038,1438 4007,1427 3981,1439C3955,1451 3944,1482 3956,1508C3966,1530 3989,1541 4011,1538L4150,1840C4133,1855 4126,1880 4136,1901C4148,1927 4179,1938 4205,1926C4231,1914 4242,1883 4230,1857C4221,1835 4198,1824 4175,1827ZM5116,2356L4092,1977L3993,1760C4010,1745 4017,1720 4007,1699C3995,1673 3964,1662 3938,1673C3912,1685 3901,1716 3912,1742C3922,1764 3945,1775 3967,1772L4071,1999L4076,2001L5105,2382C5103,2405 5116,2427 5139,2435C5166,2445 5196,2431 5206,2404C5216,2377 5202,2347 5175,2337C5154,2330 5129,2338 5116,2356ZM5678,3513C5690,3539 5721,3550 5747,3538C5773,3526 5784,3495 5772,3469C5762,3447 5739,3436 5717,3440L5402,2756L5397,2754L3891,2196L3523,1400C3540,1385 3547,1360 3537,1339C3525,1313 3494,1302 3468,1314C3442,1326 3431,1357 3443,1383C3453,1405 3476,1416 3499,1412L3872,2218L3877,2220L5383,2778L5694,3452C5674,3467 5668,3492 5678,3513ZM3620,1099C3574,1099 3537,1062 3537,1016C3537,970 3574,933 3620,933C3666,933 3703,970 3703,1016C3703,1062 3666,1099 3620,1099ZM3620,989C3605,989 3592,1001 3592,1017C3592,1032 3604,1045 3620,1045C3635,1045 3648,1033 3648,1017C3648,1001 3635,989 3620,989ZM3759,2406C3759,2345 3809,2296 3869,2296C3930,2296 3979,2346 3979,2406C3979,2467 3929,2516 3869,2516C3809,2517 3759,2467 3759,2406ZM3870,2462C3900,2462 3925,2437 3925,2407C3925,2377 3900,2352 3870,2352C3840,2352 3815,2377 3815,2407C3815,2437 3839,2462 3870,2462ZM3880,1090C3945,1090 3997,1143 3997,1207C3997,1271 3944,1324 3880,1324C3816,1324 3763,1271 3763,1207C3763,1143 3815,1090 3880,1090ZM3880,1256C3907,1256 3928,1234 3928,1208C3928,1182 3906,1160 3880,1160C3853,1160 3832,1182 3832,1208C3832,1234 3853,1256 3880,1256ZM3430,1543L3441,1567L3466,1555L3477,1579L3452,1591L3463,1615L3433,1629L3442,1649L3222,1751L3213,1731L3183,1745L3172,1721L3147,1733L3136,1709L3161,1697L3150,1673L3180,1659L3162,1619L3132,1633L3121,1609L3096,1621L3085,1597L3110,1585L3099,1561L3129,1547L3111,1507L3081,1521L3070,1497L3045,1509L3034,1485L3059,1473L3048,1449L3078,1435L3060,1395L3030,1409L3019,1385L2994,1397L2983,1373L3008,1361L2997,1337L3027,1323L3018,1303L3238,1201L3247,1221L3277,1207L3288,1231L3313,1219L3324,1243L3299,1255L3310,1279L3280,1293L3298,1333L3328,1319L3339,1343L3364,1331L3375,1355L3350,1367L3361,1391L3331,1405L3349,1445L3379,1431L3390,1455L3415,1443L3426,1467L3401,1479L3412,1503L3382,1517L3400,1557L3430,1543ZM3078,1328L3244,1686L3269,1674L3103,1316L3078,1328ZM3213,1266L3188,1278L3354,1636L3379,1624L3213,1266ZM4293,1468L4178,1521C4157,1531 4148,1555 4158,1576C4168,1597 4192,1606 4213,1596L4328,1543C4349,1533 4358,1509 4348,1488C4341,1473 4326,1464 4310,1464C4305,1464 4299,1465 4293,1468ZM4357,1604L4242,1657C4221,1667 4212,1691 4222,1712C4232,1733 4256,1742 4277,1732L4392,1679C4413,1669 4422,1645 4412,1624C4405,1609 4390,1600 4374,1600C4368,1600 4362,1601 4357,1604ZM4420,1740L4305,1793C4284,1803 4275,1827 4285,1848C4295,1869 4319,1878 4340,1868L4455,1815C4476,1805 4485,1781 4475,1760C4468,1745 4453,1736 4437,1736C4431,1736 4425,1737 4420,1740ZM4483,1876L4368,1929C4347,1939 4338,1963 4348,1984C4358,2005 4382,2014 4403,2004L4518,1951C4539,1941 4548,1917 4538,1896C4531,1881 4516,1872 4500,1872C4495,1872 4489,1874 4483,1876ZM4082,1404C4074,1404 4068,1410 4068,1418C4068,1426 4074,1432 4082,1432C4090,1432 4096,1426 4096,1418C4096,1410 4089,1404 4082,1404ZM4125,1392C4125,1400 4131,1406 4139,1406C4147,1406 4153,1400 4153,1392C4153,1384 4147,1378 4139,1378C4132,1378 4125,1384 4125,1392ZM4073,1355C4073,1363 4079,1369 4087,1369C4095,1369 4101,1363 4101,1355C4101,1347 4095,1341 4087,1341C4079,1341 4073,1347 4073,1355ZM4197,1379C4205,1379 4211,1373 4211,1365C4211,1357 4205,1351 4197,1351C4189,1351 4183,1357 4183,1365C4183,1373 4189,1379 4197,1379ZM3817,1397C3794,1397 3776,1416 3776,1438C3776,1461 3795,1479 3817,1479C3839,1479 3858,1460 3858,1438C3858,1416 3840,1397 3817,1397ZM4131,1329C4131,1337 4137,1343 4145,1343C4153,1343 4159,1337 4159,1329C4159,1321 4153,1315 4145,1315C4137,1315 4131,1321 4131,1329ZM3864,2873L3495,3043L3087,2892C3051,2879 3012,2897 2998,2933C2985,2969 3003,3008 3039,3022L3474,3183C3491,3189 3510,3189 3527,3181L3948,2987C3965,2979 3978,2965 3984,2948L4145,2513C4158,2477 4140,2438 4104,2424C4096,2421 4088,2420 4080,2420C4052,2420 4026,2437 4015,2465L3864,2873ZM3827,3101C3819,3101 3813,3107 3813,3115C3813,3123 3819,3129 3827,3129C3835,3129 3841,3123 3841,3115C3841,3107 3835,3101 3827,3101ZM3931,3071C3923,3071 3917,3077 3917,3085C3917,3093 3923,3099 3931,3099C3939,3099 3945,3093 3945,3085C3945,3077 3939,3071 3931,3071ZM4034,3036C4026,3036 4020,3042 4020,3050C4020,3058 4026,3064 4034,3064C4042,3064 4048,3058 4048,3050C4048,3042 4041,3036 4034,3036ZM4148,3008C4148,3000 4142,2994 4134,2994C4126,2994 4120,3000 4120,3008C4120,3016 4126,3022 4134,3022C4141,3022 4148,3016 4148,3008ZM4230,2946C4222,2946 4216,2952 4216,2960C4216,2968 4222,2974 4230,2974C4238,2974 4244,2968 4244,2960C4244,2952 4237,2946 4230,2946ZM4321,2890C4313,2890 4307,2896 4307,2904C4307,2912 4313,2918 4321,2918C4329,2918 4335,2912 4335,2904C4335,2896 4328,2890 4321,2890ZM4405,2826C4397,2826 4391,2832 4391,2840C4391,2848 4397,2854 4405,2854C4413,2854 4419,2848 4419,2840C4419,2832 4413,2826 4405,2826ZM4468,2767C4468,2775 4474,2781 4482,2781C4490,2781 4496,2775 4496,2767C4496,2759 4490,2753 4482,2753C4475,2754 4468,2760 4468,2767ZM4550,2672C4542,2672 4536,2678 4536,2686C4536,2694 4542,2700 4550,2700C4558,2700 4564,2694 4564,2686C4564,2678 4558,2672 4550,2672ZM4608,2581C4600,2581 4594,2587 4594,2595C4594,2603 4600,2609 4608,2609C4616,2609 4622,2603 4622,2595C4622,2587 4615,2581 4608,2581ZM3435,1774C3443,1774 3449,1768 3449,1760C3449,1752 3443,1746 3435,1746C3427,1746 3421,1752 3421,1760C3421,1768 3427,1774 3435,1774ZM3377,1801C3385,1801 3391,1795 3391,1787C3391,1779 3385,1773 3377,1773C3369,1773 3363,1779 3363,1787C3363,1794 3369,1801 3377,1801ZM3443,1824C3443,1816 3437,1810 3429,1810C3421,1810 3415,1816 3415,1824C3415,1832 3421,1838 3429,1838C3437,1837 3443,1831 3443,1824ZM3320,1799C3312,1799 3306,1805 3306,1813C3306,1821 3312,1827 3320,1827C3328,1827 3334,1821 3334,1813C3333,1806 3327,1799 3320,1799ZM3385,1850C3385,1842 3379,1836 3371,1836C3363,1836 3357,1842 3357,1850C3357,1858 3363,1864 3371,1864C3379,1864 3385,1858 3385,1850ZM3494,1752C3502,1752 3508,1746 3508,1738C3508,1730 3502,1724 3494,1724C3486,1724 3480,1730 3480,1738C3480,1746 3486,1752 3494,1752ZM3497,1801C3497,1793 3491,1787 3483,1787C3475,1787 3469,1793 3469,1801C3469,1809 3475,1815 3483,1815C3491,1815 3497,1809 3497,1801ZM3553,1730C3561,1730 3567,1724 3567,1716C3567,1708 3561,1702 3553,1702C3545,1702 3539,1708 3539,1716C3539,1724 3545,1730 3553,1730ZM3556,1779C3556,1771 3550,1765 3542,1765C3534,1765 3528,1771 3528,1779C3528,1787 3534,1793 3542,1793C3550,1793 3556,1787 3556,1779ZM4471,2566C4471,2551 4459,2538 4443,2538C4428,2538 4415,2550 4415,2566C4415,2581 4427,2594 4443,2594C4458,2594 4471,2581 4471,2566ZM4245,2796L4320,2594C4329,2570 4318,2544 4295,2534L4310,2493L4284,2483L4269,2524C4245,2518 4220,2530 4211,2554L4136,2756C4127,2780 4138,2806 4161,2816L4144,2861L4170,2871L4187,2826C4211,2832 4236,2819 4245,2796ZM3579,2706L3498,2529C3515,2514 3522,2489 3512,2468C3500,2442 3469,2431 3443,2443C3417,2455 3406,2486 3418,2512C3428,2534 3451,2545 3473,2542L3554,2719C3537,2734 3530,2759 3540,2780C3552,2806 3583,2817 3609,2805C3635,2793 3646,2762 3634,2736C3624,2714 3601,2703 3579,2706ZM4400,2719C4415,2719 4428,2707 4428,2691C4428,2676 4416,2663 4400,2663C4384,2663 4372,2675 4372,2691C4372,2707 4385,2719 4400,2719ZM3005,2552L3025,2596L2997,2609L2977,2565L2952,2576L2972,2620L2944,2633L2924,2589L2899,2600L2919,2644L2872,2665L2923,2776L2970,2755L2989,2797L3014,2786L2995,2744L3023,2731L3042,2773L3067,2762L3048,2720L3076,2707L3095,2749L3120,2738L3101,2696L3148,2675L3097,2564L3050,2585L3030,2541L3005,2552" style="fill:white;fill-rule:nonzero;"/>
            </g>
        </g>
    </g>
</svg>
